<svg width="220" height="60" viewBox="0 0 220 60" fill="none" xmlns="http://www.w3.org/2000/svg">
<g clip-path="url(#clip0_3404_4519)">
<path fill-rule="evenodd" clip-rule="evenodd" d="M62.8281 3.8457H63.4355V54.3242H62.8281V3.8457Z" fill="white"/>
<path d="M63.5032 3.84678H62.8958L62.7608 3.7793H63.3682L63.5032 3.84678ZM63.3682 3.7793H63.5032V3.84678L63.3682 3.7793ZM63.3682 54.3253V3.7793L63.5707 3.84678V54.3253H63.3682ZM62.7608 54.3253H63.3682L63.5032 54.3928H62.8958L62.7608 54.3253ZM62.8958 54.3928H62.7608V54.3253L62.8958 54.3928ZM62.8958 3.84678V54.3253L62.6934 54.2578V3.7793L62.8958 3.84678Z" fill="white"/>
<path d="M78.6871 25.4414V36.4414H77V25.4414H78.6871Z" fill="white"/>
<path d="M81.3191 36.4416V24.6992L89.3498 33.0673V25.4416H91.0369V37.1164L83.0062 28.7483V36.4416H81.3191Z" fill="white"/>
<path d="M93.6013 36.4427V25.4427H95.8958C96.7848 25.428 97.6712 25.5416 98.5277 25.7801C99.2306 25.9936 99.8765 26.3626 100.417 26.8598C100.982 27.3671 101.426 27.9937 101.718 28.6941C102.009 29.3945 102.142 30.1511 102.104 30.9089C102.123 31.6806 101.976 32.4474 101.674 33.1576C101.371 33.8677 100.92 34.5047 100.35 35.0255C99.809 35.5227 99.1631 35.8917 98.4602 36.1052C97.6279 36.3493 96.7629 36.4631 95.8958 36.4427H93.6013ZM95.2884 34.823H96.0308C96.6666 34.8337 97.3012 34.7657 97.9203 34.6206C98.4316 34.4694 98.8961 34.1907 99.27 33.8108C99.6578 33.4335 99.9659 32.9823 100.176 32.4839C100.387 31.9855 100.495 31.4499 100.495 30.9089C100.495 30.3679 100.387 29.8324 100.176 29.334C99.9659 28.8356 99.6578 28.3844 99.27 28.0071C98.3561 27.2742 97.1994 26.9127 96.0308 26.9948H95.2884V34.823Z" fill="white"/>
<path d="M105.883 25.4414V36.4414H104.196V25.4414H105.883Z" fill="white"/>
<path d="M114.926 33.743H110.202L108.988 36.4424H107.233L112.699 24.7676L117.963 36.4424H116.074L114.926 33.743ZM114.252 32.1909L112.632 28.4792L110.945 32.1909H114.252Z" fill="white"/>
<path d="M119.583 24.9688L121 25.5086L118.976 29.5577L117.896 29.0853L119.583 24.9688Z" fill="white"/>
<path d="M129.368 27.0612L128.018 27.871C127.861 27.513 127.603 27.2083 127.276 26.9937C126.983 26.8483 126.658 26.7787 126.331 26.7912C125.912 26.7801 125.504 26.9243 125.184 27.1961C124.911 27.4384 124.742 27.7769 124.712 28.1409C124.712 28.6808 125.117 29.0857 125.926 29.4231L127.006 29.8955C127.771 30.1564 128.448 30.6235 128.963 31.2452C129.373 31.7885 129.587 32.4545 129.571 33.1348C129.578 33.5976 129.492 34.0572 129.318 34.4863C129.145 34.9153 128.886 35.3051 128.559 35.6324C128.232 35.9597 127.842 36.218 127.413 36.3917C126.984 36.5655 126.524 36.6513 126.061 36.644C125.201 36.6773 124.359 36.3885 123.699 35.8342C123.045 35.2111 122.637 34.3722 122.552 33.4722L124.239 33.1348C124.25 33.613 124.39 34.0793 124.644 34.4845C124.813 34.7152 125.038 34.8986 125.298 35.0168C125.558 35.135 125.844 35.1841 126.129 35.1593C126.368 35.1631 126.606 35.1171 126.827 35.0242C127.048 34.9312 127.247 34.7934 127.411 34.6195C127.645 34.3574 127.81 34.0416 127.893 33.7002C127.975 33.3588 127.972 33.0023 127.884 32.6624C127.835 32.4846 127.742 32.322 127.614 32.19C127.471 32.0387 127.313 31.903 127.141 31.7851C126.921 31.6201 126.668 31.505 126.399 31.4477L125.319 30.9753C123.834 30.3679 123.092 29.4231 123.092 28.2084C123.097 27.8135 123.184 27.4239 123.347 27.064C123.509 26.7041 123.744 26.3815 124.037 26.1164C124.696 25.562 125.538 25.2733 126.399 25.3066C127.011 25.2762 127.619 25.4263 128.147 25.7382C128.675 26.0501 129.099 26.5101 129.368 27.0612Z" fill="white"/>
<path d="M157.712 23.6188V15.4531H158.656V22.674H161.761V23.6188H157.712Z" fill="white"/>
<path d="M162.638 16.0614C162.636 15.9052 162.688 15.753 162.785 15.6309C162.883 15.5088 163.02 15.4242 163.172 15.3917C163.325 15.3592 163.485 15.3807 163.623 15.4526C163.762 15.5245 163.872 15.6424 163.933 15.786C163.995 15.9296 164.004 16.0901 163.961 16.2401C163.917 16.3902 163.823 16.5204 163.694 16.6087C163.565 16.6969 163.409 16.7377 163.254 16.7241C163.098 16.7104 162.952 16.6432 162.84 16.5338C162.718 16.4061 162.646 16.2382 162.638 16.0614ZM162.84 23.6197V18.4909H163.718V23.6197H162.84Z" fill="white"/>
<path d="M165.067 22.7416L165.81 22.2692C165.934 22.5149 166.12 22.7242 166.35 22.8765C166.572 23.0146 166.83 23.085 167.092 23.079C167.334 23.0951 167.574 23.0232 167.767 22.8765C167.843 22.8181 167.906 22.7442 167.951 22.6595C167.997 22.5749 168.023 22.4815 168.03 22.3857C168.036 22.2899 168.022 22.1938 167.988 22.1039C167.955 22.014 167.902 21.9323 167.834 21.8643C167.649 21.7233 167.444 21.6096 167.227 21.5268L167.092 21.4594C165.877 21.0545 165.202 20.5146 165.202 19.8397C165.187 19.6348 165.222 19.4292 165.304 19.241C165.386 19.0527 165.514 18.8875 165.675 18.76C166.04 18.4768 166.495 18.3332 166.957 18.3551C167.357 18.3317 167.756 18.4255 168.104 18.625C168.411 18.7834 168.651 19.0469 168.779 19.3673L168.037 19.7722C167.957 19.5368 167.787 19.3426 167.564 19.2324C167.345 19.0862 167.085 19.0152 166.822 19.0299C166.712 19.0152 166.6 19.0258 166.495 19.0609C166.39 19.096 166.294 19.1546 166.215 19.2324C166.06 19.3721 165.964 19.5648 165.945 19.7722C165.945 20.1097 166.282 20.3796 166.957 20.5821C167.039 20.629 167.132 20.6524 167.227 20.6495C167.644 20.7783 168.033 20.9843 168.374 21.2569C168.594 21.4961 168.714 21.8096 168.712 22.1342C168.73 22.356 168.69 22.5787 168.595 22.7801C168.5 22.9815 168.354 23.1544 168.172 23.2815C167.806 23.5511 167.372 23.713 166.918 23.7487C166.465 23.7845 166.011 23.6928 165.607 23.4839C165.336 23.3177 165.142 23.0507 165.067 22.7416Z" fill="white"/>
<path d="M170.331 19.2337H169.386V18.4913H170.331V16.4668H171.209V18.4913H172.153V19.2337H171.209V23.6202H170.331V19.2337Z" fill="white"/>
<path d="M177.754 21.1897H173.705V21.2572C173.69 21.5023 173.724 21.7481 173.805 21.9799C173.886 22.2118 174.013 22.425 174.178 22.6069C174.333 22.7745 174.521 22.9087 174.73 23.0015C174.938 23.0943 175.164 23.1437 175.392 23.1468C175.728 23.1615 176.06 23.0668 176.337 22.8768C176.634 22.6571 176.886 22.3822 177.08 22.067L177.754 22.5394C177.526 22.9706 177.173 23.3233 176.742 23.5517C176.324 23.7659 175.862 23.8814 175.392 23.8891C175.044 23.8955 174.698 23.8333 174.374 23.7059C174.05 23.5785 173.754 23.3885 173.503 23.1468C173.001 22.5942 172.735 21.868 172.76 21.1222C172.748 20.763 172.807 20.4049 172.934 20.0688C173.062 19.7328 173.255 19.4255 173.503 19.1652C173.99 18.6887 174.644 18.4219 175.325 18.4219C176.006 18.4219 176.66 18.6887 177.147 19.1652C177.599 19.7158 177.838 20.4101 177.822 21.1222L177.754 21.1897ZM176.81 20.5149C176.817 20.3207 176.778 20.1276 176.696 19.9516C176.614 19.7755 176.491 19.6216 176.337 19.5026C176.036 19.252 175.648 19.1308 175.257 19.1652C174.861 19.1662 174.477 19.3099 174.178 19.5701C174.024 19.6887 173.9 19.8426 173.818 20.0187C173.736 20.1948 173.697 20.3881 173.705 20.5824L176.81 20.5149Z" fill="white"/>
<path d="M183.828 14.9815V23.6196H182.951V22.6748C182.755 23.0278 182.477 23.3286 182.141 23.5521C181.815 23.7436 181.44 23.8373 181.061 23.822C180.732 23.8353 180.404 23.7756 180.101 23.6473C179.798 23.519 179.526 23.3251 179.307 23.0797C178.844 22.5087 178.605 21.7894 178.632 21.0552C178.584 20.3181 178.826 19.5914 179.307 19.0306C179.526 18.7852 179.798 18.5914 180.101 18.463C180.404 18.3347 180.732 18.275 181.061 18.2883C181.441 18.2648 181.818 18.3591 182.141 18.5582C182.472 18.7682 182.731 19.0743 182.884 19.4355V14.9141L183.828 14.9815ZM182.951 21.0552C182.967 20.81 182.933 20.5643 182.852 20.3324C182.77 20.1006 182.644 19.8874 182.479 19.7055C182.314 19.5315 182.115 19.3937 181.894 19.3008C181.674 19.2078 181.436 19.1618 181.196 19.1656C180.971 19.1436 180.744 19.1749 180.533 19.257C180.322 19.339 180.133 19.4695 179.982 19.638C179.698 20.0036 179.555 20.4582 179.577 20.9202C179.547 21.4459 179.689 21.9671 179.982 22.4049C180.128 22.5831 180.314 22.7246 180.525 22.8183C180.736 22.9121 180.966 22.9553 181.196 22.9447C181.431 22.9602 181.667 22.9261 181.888 22.8448C182.109 22.7634 182.31 22.6365 182.479 22.4723C182.649 22.2802 182.778 22.0556 182.86 21.812C182.941 21.5685 182.972 21.311 182.951 21.0552Z" fill="white"/>
<path d="M157.712 36.0359V27.8702H159.601C160.007 27.8504 160.415 27.873 160.816 27.9377C161.07 27.9804 161.305 28.0979 161.491 28.2751C161.728 28.4752 161.914 28.73 162.031 29.0175C162.169 29.3605 162.238 29.7275 162.233 30.0972C162.265 30.6655 162.071 31.2234 161.693 31.6494C161.241 32.0273 160.662 32.2202 160.074 32.1893H159.871L162.975 36.1034H161.761L158.791 32.1893H158.656V36.1034L157.712 36.0359ZM158.656 28.68V31.3794H159.399C159.931 31.4354 160.469 31.3419 160.951 31.1095C161.095 30.9857 161.207 30.8291 161.277 30.6529C161.348 30.4767 161.375 30.2861 161.356 30.0972C161.381 29.8979 161.357 29.6956 161.286 29.5075C161.216 29.3194 161.101 29.1513 160.951 29.0175C160.503 28.754 159.984 28.6361 159.466 28.68H158.656Z" fill="white"/>
<path d="M168.307 33.6075H164.258V33.675C164.242 33.9202 164.276 34.1659 164.357 34.3978C164.438 34.6296 164.565 34.8428 164.73 35.0247C164.885 35.1923 165.073 35.3265 165.282 35.4193C165.491 35.5121 165.716 35.5616 165.945 35.5646C166.281 35.5793 166.612 35.4846 166.89 35.2947C167.187 35.0749 167.439 34.8 167.632 34.4848L168.307 34.9572C168.078 35.3884 167.726 35.7411 167.294 35.9695C166.855 36.1916 166.37 36.3072 165.877 36.3069C165.529 36.3133 165.183 36.2511 164.859 36.1237C164.534 35.9963 164.238 35.8064 163.988 35.5646C163.486 35.012 163.22 34.2858 163.245 33.5401C163.233 33.1808 163.292 32.8227 163.419 32.4866C163.547 32.1506 163.74 31.8434 163.988 31.583C164.216 31.3296 164.498 31.1311 164.813 31.0025C165.129 30.8739 165.47 30.8186 165.81 30.8407C166.148 30.8342 166.484 30.8966 166.797 31.0242C167.111 31.1519 167.394 31.342 167.632 31.583C168.084 32.1336 168.323 32.828 168.307 33.5401V33.6075ZM167.362 32.8652C167.369 32.6711 167.33 32.478 167.248 32.3019C167.166 32.1259 167.043 31.9719 166.89 31.8529C166.578 31.6215 166.198 31.5026 165.81 31.5155C165.413 31.5165 165.03 31.6602 164.73 31.9204C164.588 32.0491 164.473 32.2049 164.391 32.3788C164.31 32.5526 164.265 32.741 164.258 32.9327L167.362 32.8652Z" fill="white"/>
<path d="M174.313 30.9072V36.036H173.436V35.0912C173.24 35.4442 172.962 35.745 172.626 35.9685C172.299 36.16 171.924 36.2537 171.546 36.2384C171.217 36.2517 170.889 36.1921 170.586 36.0637C170.282 35.9354 170.011 35.7415 169.791 35.4961C169.329 34.9251 169.089 34.2058 169.117 33.4716C169.068 32.7345 169.311 32.0078 169.791 31.447C170.011 31.2016 170.282 31.0078 170.586 30.8794C170.889 30.7511 171.217 30.6914 171.546 30.7047C171.925 30.6812 172.302 30.7755 172.626 30.9746C172.957 31.1846 173.216 31.4907 173.368 31.8519V30.9072H174.313ZM173.503 33.4716C173.523 32.9575 173.355 32.4538 173.031 32.0544C172.885 31.875 172.699 31.7325 172.488 31.6387C172.277 31.5449 172.047 31.5023 171.816 31.5145C171.591 31.4991 171.366 31.5334 171.156 31.6151C170.946 31.6967 170.757 31.8237 170.601 31.9869C170.318 32.3782 170.175 32.8539 170.196 33.3366C170.175 33.5925 170.207 33.8499 170.288 34.0935C170.369 34.337 170.498 34.5616 170.669 34.7538C170.837 34.9179 171.039 35.0448 171.26 35.1262C171.481 35.2076 171.716 35.2416 171.951 35.2262C172.176 35.2482 172.404 35.2169 172.615 35.1348C172.826 35.0527 173.014 34.9222 173.166 34.7538C173.424 34.3789 173.544 33.9253 173.503 33.4716Z" fill="white"/>
<path d="M176.135 36.0376V27.332H177.012V35.9701H176.135V36.0376Z" fill="white"/>
<path d="M182.276 36.0367V27.8711H186.595V28.7484H183.288V31.0429H186.595V31.9202H183.288V35.092H186.595V35.9693C186.595 36.0367 182.276 36.0367 182.276 36.0367Z" fill="white"/>
<path d="M187.607 35.1604L188.35 34.688C188.474 34.9338 188.66 35.143 188.89 35.2954C189.112 35.4335 189.37 35.5038 189.632 35.4978C189.874 35.514 190.114 35.4421 190.307 35.2954C190.383 35.237 190.446 35.163 190.491 35.0784C190.537 34.9937 190.563 34.9004 190.57 34.8045C190.576 34.7087 190.562 34.6126 190.528 34.5227C190.495 34.4328 190.442 34.3511 190.374 34.2831C190.189 34.1421 189.985 34.0285 189.767 33.9457L189.632 33.8782C188.417 33.4733 187.742 32.9334 187.742 32.2586C187.733 32.0445 187.771 31.8311 187.852 31.633C187.934 31.4349 188.058 31.2569 188.215 31.1113C188.388 30.9571 188.591 30.8412 188.812 30.7714C189.033 30.7016 189.267 30.6795 189.497 30.7064C189.898 30.6831 190.296 30.7769 190.644 30.9764C190.951 31.1347 191.191 31.3982 191.319 31.7187L190.644 32.1236C190.524 31.9141 190.364 31.7306 190.172 31.5837C189.974 31.4467 189.738 31.3759 189.497 31.3813C189.391 31.372 189.283 31.3839 189.182 31.4163C189.08 31.4487 188.985 31.5009 188.904 31.5699C188.822 31.6389 188.755 31.7233 188.706 31.8183C188.658 31.9134 188.628 32.0171 188.62 32.1236C188.62 32.461 188.957 32.6635 189.632 32.9334C189.736 32.988 189.853 33.0114 189.969 33.0009C190.386 33.1297 190.776 33.3357 191.117 33.6083C191.336 33.8475 191.457 34.161 191.454 34.4856C191.473 34.7074 191.432 34.9301 191.338 35.1315C191.243 35.3328 191.097 35.5057 190.914 35.6328C190.548 35.9025 190.114 36.0643 189.661 36.1001C189.208 36.1359 188.754 36.0441 188.35 35.8353C188.043 35.6854 187.786 35.4514 187.607 35.1604Z" fill="white"/>
<path d="M192.939 31.6497H191.994V30.9074H192.939V28.8828H193.816V30.9074H194.761V31.6497H193.816V36.0362H192.939V31.6497Z" fill="white"/>
<path d="M200.564 30.9072V36.036H199.687V35.0912C199.491 35.4442 199.213 35.745 198.877 35.9685C198.551 36.16 198.176 36.2537 197.798 36.2384C197.468 36.2517 197.14 36.1921 196.837 36.0637C196.534 35.9354 196.263 35.7415 196.043 35.4961C195.58 34.9251 195.341 34.2058 195.368 33.4716C195.32 32.7345 195.562 32.0078 196.043 31.447C196.263 31.2016 196.534 31.0078 196.837 30.8794C197.14 30.7511 197.468 30.6914 197.798 30.7047C198.177 30.6812 198.554 30.7755 198.877 30.9746C199.208 31.1846 199.467 31.4907 199.62 31.8519V30.9072H200.564ZM199.687 33.4716C199.707 32.9575 199.539 32.4538 199.215 32.0544C199.069 31.875 198.883 31.7325 198.672 31.6387C198.461 31.5449 198.231 31.5023 198 31.5145C197.775 31.4991 197.55 31.5334 197.34 31.6151C197.13 31.6967 196.941 31.8237 196.785 31.9869C196.502 32.3782 196.359 32.8539 196.38 33.3366C196.359 33.5925 196.39 33.8499 196.472 34.0935C196.553 34.337 196.682 34.5616 196.853 34.7538C197.021 34.9179 197.223 35.0448 197.444 35.1262C197.665 35.2076 197.9 35.2416 198.135 35.2262C198.36 35.2482 198.588 35.2169 198.799 35.1348C199.01 35.0527 199.198 34.9222 199.35 34.7538C199.608 34.3789 199.728 33.9253 199.687 33.4716Z" fill="white"/>
<path d="M202.454 31.6497H201.509V30.9074H202.454V28.8828H203.331V30.9074H204.276V31.6497H203.331V36.0362H202.454V31.6497Z" fill="white"/>
<path d="M209.81 33.6077H205.761V33.6752C205.745 33.9203 205.779 34.1661 205.86 34.3979C205.941 34.6298 206.068 34.843 206.233 35.0249C206.388 35.1924 206.576 35.3267 206.785 35.4195C206.994 35.5123 207.219 35.5617 207.448 35.5647C207.784 35.5795 208.115 35.4847 208.393 35.2948C208.69 35.0751 208.942 34.8001 209.135 34.485L209.81 34.9574C209.581 35.3886 209.229 35.7412 208.798 35.9697C208.379 36.1839 207.918 36.2993 207.448 36.3071C207.1 36.3135 206.753 36.2512 206.429 36.1239C206.105 35.9965 205.809 35.8065 205.558 35.5647C205.057 35.0122 204.791 34.2859 204.816 33.5402C204.803 33.181 204.862 32.8229 204.99 32.4868C205.117 32.1507 205.31 31.8435 205.558 31.5832C206.045 31.1067 206.699 30.8398 207.38 30.8398C208.062 30.8398 208.716 31.1067 209.202 31.5832C209.654 32.1337 209.894 32.8281 209.877 33.5402L209.81 33.6077ZM208.865 32.8654C208.872 32.6712 208.833 32.4781 208.751 32.3021C208.669 32.126 208.546 31.9721 208.393 31.8531C208.091 31.6025 207.703 31.4812 207.313 31.5157C206.916 31.5167 206.533 31.6604 206.233 31.9206C206.079 32.0392 205.956 32.193 205.874 32.3692C205.791 32.5453 205.753 32.7386 205.761 32.9328L208.865 32.8654Z" fill="white"/>
<path d="M157.712 48.5881V40.4225H159.399C159.85 40.4036 160.302 40.4262 160.748 40.4899C161.022 40.5316 161.279 40.6484 161.491 40.8274C161.748 41.025 161.955 41.2789 162.098 41.5697C162.243 41.8869 162.312 42.2334 162.301 42.582C162.335 42.9723 162.214 43.3604 161.963 43.6617C161.73 43.939 161.427 44.1487 161.086 44.2691C161.315 44.2908 161.536 44.3625 161.734 44.4791C161.933 44.5957 162.103 44.7544 162.233 44.9439C162.507 45.3398 162.649 45.8123 162.638 46.2936C162.636 46.6191 162.567 46.9406 162.436 47.2384C162.318 47.5093 162.159 47.7599 161.963 47.9807C161.72 48.2158 161.416 48.3792 161.086 48.4531C160.529 48.5526 159.964 48.5978 159.399 48.5881H157.712ZM158.656 41.2323V43.9991H159.399C159.907 44.0147 160.413 43.9228 160.883 43.7292C161.033 43.6098 161.148 43.4538 161.219 43.2764C161.29 43.099 161.314 42.9063 161.288 42.7169C161.313 42.5176 161.289 42.3153 161.219 42.1272C161.148 41.9391 161.033 41.771 160.883 41.6372C160.435 41.3737 159.917 41.2558 159.399 41.2998L158.656 41.2323ZM158.656 44.7415V47.7108H159.399C159.783 47.7312 160.167 47.7085 160.546 47.6433C160.734 47.5989 160.915 47.5308 161.086 47.4409C161.237 47.2982 161.373 47.1398 161.491 46.9685C161.6 46.7612 161.647 46.5269 161.626 46.2936C161.623 46.0115 161.554 45.7341 161.423 45.4838C161.322 45.2615 161.158 45.0738 160.951 44.9439C160.808 44.8595 160.645 44.813 160.479 44.809C160.276 44.809 160.074 44.7415 159.669 44.7415H158.656Z" fill="white"/>
<path d="M164.055 48.5895V43.4607H164.798V44.5404C164.975 44.1766 165.228 43.8546 165.54 43.5956C165.817 43.4057 166.149 43.311 166.485 43.3257H166.755C166.822 43.3257 166.957 43.3932 167.024 43.3932L166.755 44.203C166.675 44.1493 166.58 44.1254 166.485 44.1355H166.215C166.019 44.113 165.82 44.1452 165.642 44.2286C165.463 44.3119 165.311 44.4433 165.202 44.6079C164.957 45.0628 164.84 45.5762 164.865 46.0926V48.5895H164.055Z" fill="white"/>
<path d="M167.632 46.0245C167.627 45.6548 167.696 45.2878 167.834 44.9448C168.133 44.2863 168.661 43.7587 169.319 43.4601C170.014 43.1904 170.784 43.1904 171.479 43.4601C172.137 43.7587 172.665 44.2863 172.963 44.9448C173.233 45.6393 173.233 46.4097 172.963 47.1043C172.824 47.436 172.617 47.7348 172.356 47.9816C172.085 48.2452 171.763 48.4517 171.411 48.5889C170.716 48.8587 169.946 48.8587 169.252 48.5889C168.593 48.2903 168.065 47.7627 167.767 47.1043C167.652 46.7567 167.606 46.3898 167.632 46.0245ZM168.577 46.0245C168.573 46.274 168.618 46.5219 168.711 46.7536C168.804 46.9853 168.942 47.1962 169.117 47.3742C169.276 47.5553 169.474 47.698 169.696 47.7916C169.918 47.8851 170.158 47.927 170.399 47.9141C170.88 47.9086 171.341 47.7148 171.681 47.3742C172.028 47.0103 172.221 46.527 172.221 46.0245C172.221 45.522 172.028 45.0387 171.681 44.6748C171.522 44.4937 171.324 44.351 171.102 44.2575C170.88 44.164 170.639 44.1221 170.399 44.1349C169.917 44.1404 169.457 44.3342 169.117 44.6748C168.929 44.8435 168.783 45.0529 168.69 45.2869C168.596 45.5209 168.557 45.7732 168.577 46.0245Z" fill="white"/>
<path d="M174.515 48.5892V39.9512H175.393V45.8223L177.822 43.5279H178.969L176.405 45.8898L179.172 48.6567H177.957L175.325 45.9573V48.6567H174.515V48.5892Z" fill="white"/>
<path d="M184.706 46.1593H180.656V46.2268C180.641 46.472 180.675 46.7177 180.756 46.9496C180.837 47.1814 180.964 47.3946 181.129 47.5765C181.284 47.7441 181.472 47.8783 181.681 47.9711C181.89 48.0639 182.115 48.1134 182.344 48.1164C182.679 48.1311 183.011 48.0364 183.288 47.8465C183.586 47.6268 183.838 47.3518 184.031 47.0366L184.706 47.509C184.459 47.9448 184.112 48.3151 183.693 48.5888C183.275 48.8031 182.813 48.9185 182.344 48.9262C181.995 48.9326 181.649 48.8704 181.325 48.743C181.001 48.6156 180.705 48.4257 180.454 48.1839C179.953 47.6313 179.686 46.9051 179.712 46.1593C179.699 45.8001 179.758 45.442 179.885 45.1059C180.013 44.7699 180.206 44.4627 180.454 44.2023C180.941 43.7258 181.595 43.459 182.276 43.459C182.957 43.459 183.611 43.7258 184.098 44.2023C184.55 44.7529 184.79 45.4473 184.773 46.1593H184.706ZM183.761 45.417C183.768 45.2229 183.729 45.0298 183.647 44.8537C183.565 44.6777 183.442 44.5238 183.288 44.4047C182.987 44.1542 182.599 44.0329 182.209 44.0673C181.812 44.0683 181.429 44.2121 181.129 44.4722C180.975 44.5909 180.852 44.7447 180.769 44.9208C180.687 45.097 180.648 45.2903 180.656 45.4845L183.761 45.417Z" fill="white"/>
<path d="M186.055 48.5895V43.4607H186.797V44.5404C186.975 44.1766 187.228 43.8546 187.54 43.5956C187.817 43.4057 188.149 43.311 188.485 43.3257H188.822C188.89 43.3257 189.025 43.3932 189.092 43.3932L188.822 44.203C188.743 44.1493 188.647 44.1254 188.552 44.1355H188.282C188.086 44.113 187.888 44.1452 187.709 44.2286C187.531 44.3119 187.378 44.4433 187.27 44.6079C187.024 45.0628 186.907 45.5762 186.932 46.0926V48.5895H186.055Z" fill="white"/>
<path d="M194.828 43.4599V48.5887H193.951V47.6439C193.775 48.0111 193.493 48.3169 193.141 48.5212C192.815 48.7127 192.44 48.8064 192.061 48.7912C191.732 48.8045 191.404 48.7448 191.101 48.6165C190.798 48.4881 190.526 48.2943 190.307 48.0488C189.844 47.4779 189.605 46.7586 189.632 46.0243C189.584 45.2872 189.826 44.5606 190.307 43.9998C190.526 43.7543 190.798 43.5605 191.101 43.4322C191.404 43.3038 191.732 43.2442 192.061 43.2574C192.441 43.2339 192.818 43.3282 193.141 43.5274C193.472 43.7373 193.731 44.0434 193.884 44.4047V43.4599H194.828ZM193.951 46.0918C193.971 45.5777 193.803 45.074 193.479 44.6746C193.333 44.4952 193.147 44.3527 192.936 44.2589C192.725 44.1651 192.495 44.1225 192.264 44.1347C192.039 44.1193 191.814 44.1537 191.604 44.2353C191.394 44.317 191.204 44.4439 191.049 44.6071C190.766 44.9984 190.623 45.4741 190.644 45.9568C190.623 46.2127 190.654 46.4701 190.736 46.7137C190.817 46.9572 190.946 47.1819 191.117 47.374C191.285 47.5382 191.487 47.665 191.708 47.7464C191.928 47.8278 192.164 47.8619 192.399 47.8464C192.624 47.8684 192.852 47.8371 193.063 47.755C193.274 47.673 193.462 47.5424 193.614 47.374C193.863 46.9947 193.981 46.5445 193.951 46.0918Z" fill="white"/>
<path d="M201.307 43.461V48.4548C201.346 48.8647 201.3 49.2782 201.172 49.6696C201.101 49.8923 200.986 50.0988 200.834 50.2769C200.603 50.5412 200.297 50.7294 199.957 50.8168C199.569 50.9607 199.156 51.0294 198.742 51.0192C198.093 51.0365 197.455 50.8475 196.92 50.4794C196.707 50.2959 196.536 50.0679 196.419 49.8115C196.302 49.5551 196.243 49.2764 196.245 48.9947H197.258V49.0622C197.246 49.2307 197.277 49.3993 197.348 49.5527C197.419 49.706 197.527 49.839 197.663 49.9395C198 50.1706 198.401 50.2887 198.81 50.2769C199.107 50.2757 199.403 50.2302 199.687 50.1419C199.929 50.0364 200.122 49.8436 200.227 49.6021C200.311 49.4586 200.358 49.2961 200.362 49.1297C200.362 48.9272 200.429 48.7248 200.429 48.3873V47.51C200.255 47.8389 200 48.1177 199.687 48.3199C199.352 48.4884 198.983 48.5806 198.607 48.5898C198.278 48.6031 197.95 48.5434 197.647 48.4151C197.344 48.2867 197.072 48.0929 196.853 47.8475C196.401 47.2969 196.161 46.6025 196.178 45.8904C196.156 45.5358 196.204 45.1805 196.32 44.8446C196.436 44.5088 196.617 44.1991 196.853 43.9334C197.077 43.6936 197.349 43.5036 197.651 43.3757C197.953 43.2478 198.279 43.1849 198.607 43.191C198.987 43.1675 199.364 43.2618 199.687 43.461C200.017 43.6422 200.278 43.9267 200.429 44.2708V43.326L201.307 43.461ZM200.429 46.0254C200.449 45.5113 200.281 45.0076 199.957 44.6082C199.802 44.4406 199.614 44.3064 199.405 44.2136C199.196 44.1208 198.971 44.0714 198.742 44.0683C198.518 44.0529 198.292 44.0872 198.082 44.1689C197.872 44.2505 197.683 44.3775 197.528 44.5407C197.244 44.932 197.101 45.4077 197.123 45.8904C197.102 46.1463 197.133 46.4037 197.214 46.6473C197.295 46.8908 197.425 47.1154 197.595 47.3076C197.764 47.4717 197.965 47.5986 198.186 47.68C198.407 47.7614 198.642 47.7954 198.877 47.78C199.103 47.802 199.33 47.7707 199.541 47.6886C199.752 47.6066 199.941 47.476 200.092 47.3076C200.351 46.9327 200.47 46.4791 200.429 46.0254Z" fill="white"/>
<path d="M207.65 46.1593H203.601V46.2268C203.586 46.472 203.62 46.7177 203.701 46.9496C203.782 47.1814 203.909 47.3946 204.074 47.5765C204.229 47.7441 204.417 47.8783 204.626 47.9711C204.834 48.0639 205.06 48.1134 205.288 48.1164C205.624 48.1311 205.956 48.0364 206.233 47.8465C206.53 47.6268 206.782 47.3518 206.976 47.0366L207.65 47.509C207.404 47.9448 207.057 48.3151 206.638 48.5888C206.22 48.8031 205.758 48.9185 205.288 48.9262C204.94 48.9326 204.594 48.8704 204.27 48.743C203.946 48.6156 203.65 48.4257 203.399 48.1839C202.897 47.6313 202.631 46.9051 202.656 46.1593C202.644 45.8001 202.703 45.442 202.83 45.1059C202.958 44.7699 203.151 44.4627 203.399 44.2023C203.886 43.7258 204.54 43.459 205.221 43.459C205.902 43.459 206.556 43.7258 207.043 44.2023C207.495 44.7529 207.734 45.4473 207.718 46.1593H207.65ZM206.706 45.417C206.713 45.2229 206.674 45.0298 206.592 44.8537C206.51 44.6777 206.387 44.5238 206.233 44.4047C205.932 44.1542 205.544 44.0329 205.153 44.0673C204.757 44.0683 204.373 44.2121 204.074 44.4722C203.92 44.5909 203.796 44.7447 203.714 44.9208C203.632 45.097 203.593 45.2903 203.601 45.4845L206.706 45.417Z" fill="white"/>
<path d="M148.466 10.4599L149.141 9.9875C149.242 10.2098 149.407 10.3975 149.614 10.5274C149.811 10.6644 150.048 10.7353 150.288 10.7298C150.398 10.7383 150.508 10.7248 150.613 10.6901C150.717 10.6553 150.813 10.6 150.896 10.5274C150.971 10.4717 151.034 10.4009 151.08 10.3196C151.127 10.2383 151.156 10.1481 151.166 10.055C151.152 9.91158 151.106 9.77318 151.031 9.65007C150.963 9.5151 150.761 9.44762 150.491 9.38013L150.356 9.31265C149.276 8.90774 148.669 8.43535 148.669 7.89547C148.661 7.70126 148.699 7.50796 148.782 7.33181C148.864 7.15567 148.987 7.00183 149.141 6.8832C149.461 6.61138 149.869 6.46718 150.288 6.47829C150.646 6.45416 151.002 6.54907 151.301 6.74823C151.569 6.90388 151.781 7.13998 151.908 7.42308L151.301 7.82799C151.273 7.72384 151.222 7.62726 151.152 7.54546C151.082 7.46367 150.994 7.39876 150.896 7.35559C150.702 7.27873 150.497 7.23317 150.288 7.22063C150.089 7.21557 149.895 7.28816 149.749 7.42308C149.683 7.48252 149.63 7.55553 149.595 7.63708C149.561 7.71863 149.544 7.80678 149.546 7.89547C149.546 8.16541 149.816 8.43535 150.423 8.57032C150.505 8.61726 150.599 8.64061 150.693 8.6378C151.07 8.73105 151.418 8.91657 151.706 9.17768C151.804 9.28701 151.878 9.4153 151.925 9.55459C151.971 9.69388 151.988 9.84123 151.976 9.9875C151.991 10.1827 151.955 10.3785 151.873 10.5558C151.79 10.7332 151.663 10.8862 151.503 10.9998C151.143 11.2437 150.723 11.3838 150.288 11.4047C149.909 11.4282 149.532 11.3339 149.209 11.1347C148.888 11.0062 148.625 10.7667 148.466 10.4599Z" fill="white"/>
<path d="M153.19 7.28795H152.38V6.68059H153.19V4.79102H154V6.6131H154.81V7.22046H154V11.1346H153.19V7.28795Z" fill="white"/>
<path d="M145.699 5.66838V48.926C145.699 50.7481 146.172 51.8954 147.184 52.4352C148.196 52.9751 149.951 53.2451 152.65 53.3125V54.3248H132.54V53.2451C135.442 53.1101 137.264 52.7052 138.141 52.0978C139.018 51.4905 139.423 50.0733 139.423 47.9138V14.9138C139.464 14.0183 139.327 13.1236 139.018 12.2819C138.748 11.6745 138.141 11.4046 137.196 11.4046C136.364 11.4632 135.545 11.6452 134.767 11.9444C133.825 12.2519 132.901 12.6124 132 13.0242V12.0119L145.16 5.39844H145.564C145.632 5.53341 145.699 5.60089 145.699 5.66838Z" fill="white"/>
<path fill-rule="evenodd" clip-rule="evenodd" d="M29.9745 8.6377L7.17773 31.4348H12.5956L29.9745 14.0557L47.395 31.4348H52.8129L29.9745 8.6377Z" fill="white"/>
<path fill-rule="evenodd" clip-rule="evenodd" d="M29.9744 5.60547L58 33.5804H46.5093L29.9776 17.088L13.4855 33.5804H2L29.9744 5.60547Z" fill="white"/>
<path d="M18.3872 36.1846C18.3873 42.5098 23.567 47.6893 29.8921 47.6895C36.2195 47.6895 41.3969 42.5494 41.397 36.1846V34.8945H47.8237L48.0513 35.5771C48.1195 35.782 48.1692 36.0486 48.1021 36.3408C48.0179 46.3223 39.8932 54.3945 29.8921 54.3945C19.839 54.3944 11.6822 46.2379 11.6821 36.1846V34.8945H18.3872V36.1846Z" fill="white"/>
</g>
<defs>
<clipPath id="clip0_3404_4519">
<rect width="220" height="59.184" fill="white"/>
</clipPath>
</defs>
</svg>
