<svg width="20" height="20" viewBox="0 0 20 20" fill="none" xmlns="http://www.w3.org/2000/svg">
<path d="M10 0C10.7505 0 11.3582 0.607977 11.3584 1.3584V8.6416H18.6416C19.392 8.64183 20 9.24951 20 10C20 10.7505 19.392 11.3582 18.6416 11.3584H11.3584V18.6416C11.3582 19.3921 10.7505 20 10 20C9.24949 20 8.64179 19.3921 8.6416 18.6416V11.3584H1.3584C0.607945 11.3582 0 10.7505 0 10C1.6097e-08 9.2495 0.607945 8.64181 1.3584 8.6416H8.6416V1.3584C8.64185 0.607977 9.24952 1.60958e-08 10 0Z" fill="#06162E"/>
</svg>
