<svg width="40" height="40" viewBox="0 0 40 40" fill="none" xmlns="http://www.w3.org/2000/svg">
<rect width="40" height="40" rx="20" fill="url(#paint0_linear_3623_99)"/>
<path d="M20.9877 11L20.9877 26.5862L26.2807 21.2931C26.373 21.1976 26.4833 21.1214 26.6053 21.069C26.7273 21.0166 26.8585 20.989 26.9913 20.9879C27.1241 20.9867 27.2558 21.012 27.3787 21.0623C27.5016 21.1126 27.6132 21.1868 27.7071 21.2807C27.801 21.3746 27.8753 21.4863 27.9255 21.6092C27.9758 21.7321 28.0011 21.8637 28 21.9965C27.9988 22.1293 27.9712 22.2605 27.9188 22.3825C27.8664 22.5045 27.7902 22.6149 27.6947 22.7071L20.6947 29.7072C20.5072 29.8947 20.2529 30 19.9877 30C19.7225 30 19.4682 29.8947 19.2807 29.7072L12.2807 22.7071C12.0986 22.5185 11.9978 22.2659 12 22.0037C12.0023 21.7415 12.1075 21.4907 12.2929 21.3053C12.4783 21.1199 12.7291 21.0147 12.9913 21.0124C13.2535 21.0102 13.5061 21.111 13.6947 21.2931L18.9877 26.5862L18.9877 11C18.9877 10.7348 19.0931 10.4804 19.2806 10.2929C19.4681 10.1054 19.7225 10 19.9877 10C20.2529 10 20.5073 10.1054 20.6948 10.2929C20.8824 10.4804 20.9877 10.7348 20.9877 11Z" fill="#06162E"/>
<defs>
<linearGradient id="paint0_linear_3623_99" x1="0" y1="20" x2="40" y2="20" gradientUnits="userSpaceOnUse">
<stop offset="0.0302" stop-color="#996B55"/>
<stop offset="0.3451" stop-color="#E5AB8E"/>
<stop offset="0.4755" stop-color="#E5AB8E"/>
<stop offset="0.9298" stop-color="#996B55"/>
</linearGradient>
</defs>
</svg>
