<svg width="72" height="72" viewBox="0 0 72 72" fill="none" xmlns="http://www.w3.org/2000/svg">
<rect width="72" height="72" rx="36" fill="#06162E"/>
<path d="M25.4064 44.4982L41.9379 27.9667L30.7097 27.9667C30.5106 27.9702 30.3127 27.934 30.1278 27.8601C29.9428 27.7863 29.7743 27.6764 29.6323 27.5368C29.4902 27.3972 29.3774 27.2307 29.3004 27.047C29.2233 26.8633 29.1837 26.6661 29.1837 26.467C29.1837 26.2678 29.2233 26.0706 29.3004 25.8869C29.3774 25.7032 29.4902 25.5367 29.6323 25.3971C29.7743 25.2575 29.9428 25.1476 30.1278 25.0738C30.3127 25 30.5106 24.9637 30.7097 24.9672L45.559 24.9672C45.9567 24.9672 46.3382 25.1253 46.6194 25.4065C46.9007 25.6878 47.0587 26.0692 47.0587 26.467L47.0587 41.3162C47.0519 41.7094 46.8909 42.0843 46.6104 42.36C46.3299 42.6356 45.9523 42.7901 45.559 42.7901C45.1657 42.7901 44.7881 42.6356 44.5076 42.36C44.2271 42.0843 44.066 41.7094 44.0592 41.3162L44.0592 30.088L27.5278 46.6195C27.2464 46.9008 26.8649 47.0588 26.4671 47.0588C26.0693 47.0588 25.6877 46.9008 25.4064 46.6195C25.1251 46.3382 24.9671 45.9567 24.9671 45.5588C24.9671 45.161 25.1251 44.7795 25.4064 44.4982Z" fill="white"/>
</svg>
