<svg width="32" height="32" viewBox="0 0 32 32" fill="none" xmlns="http://www.w3.org/2000/svg">
<rect x="0.5" y="0.5" width="31" height="31" rx="15.5" stroke="url(#paint0_linear_3476_10694)"/>
<path d="M14.4 11.9379C14.4 11.4886 14.7585 11.1253 15.2002 11.1253H23.1998C23.6423 11.1253 24 11.4886 24 11.9379C24 12.3873 23.6423 12.7506 23.1998 12.7506L15.1994 12.7498C14.7577 12.7498 14.4 12.3865 14.4 11.9379ZM8.80019 12.7498H11.2V13.5625C11.2 14.0118 11.5585 14.3751 12.0002 14.3751C12.4419 14.3751 12.8004 14.0118 12.8004 13.5625L12.7996 10.3126C12.7996 9.86329 12.4412 9.5 11.9994 9.5C11.5585 9.50076 11.2 9.86405 11.2 10.3126V11.1253H8.80019C8.35847 11.1253 8 11.4886 8 11.9379C8 12.3865 8.35848 12.7498 8.80019 12.7498ZM17.5992 17.6241C17.1568 17.6241 16.799 17.9874 16.799 18.4368V19.2494H8.80019C8.35848 19.2494 8 19.6127 8 20.0621C8 20.5114 8.35848 20.8747 8.80019 20.8747H16.7998V21.6874C16.7998 22.1367 17.1575 22.5 17.6 22.5C18.0425 22.5 18.4002 22.1367 18.4002 21.6874V18.4375C18.3994 17.9874 18.0417 17.6241 17.5992 17.6241ZM23.199 19.2494H20.7992C20.3568 19.2494 19.999 19.6127 19.999 20.062C19.999 20.5114 20.3568 20.8747 20.7992 20.8747H23.199C23.6415 20.8747 23.9992 20.5114 23.9992 20.062C23.9992 19.6127 23.6415 19.2494 23.199 19.2494Z" fill="url(#paint1_linear_3476_10694)"/>
<defs>
<linearGradient id="paint0_linear_3476_10694" x1="0" y1="16" x2="32" y2="16" gradientUnits="userSpaceOnUse">
<stop offset="0.0302" stop-color="#996B55"/>
<stop offset="0.3451" stop-color="#E5AB8E"/>
<stop offset="0.4755" stop-color="#E5AB8E"/>
<stop offset="0.9298" stop-color="#996B55"/>
</linearGradient>
<linearGradient id="paint1_linear_3476_10694" x1="8" y1="16" x2="24" y2="16" gradientUnits="userSpaceOnUse">
<stop offset="0.0302" stop-color="#996B55"/>
<stop offset="0.3451" stop-color="#E5AB8E"/>
<stop offset="0.4755" stop-color="#E5AB8E"/>
<stop offset="0.9298" stop-color="#996B55"/>
</linearGradient>
</defs>
</svg>
