<svg width="64" height="64" viewBox="0 0 64 64" fill="none" xmlns="http://www.w3.org/2000/svg">
<g opacity="0.24">
<path d="M22.2344 32H12.4688V24.1875C12.4688 19.8784 15.9721 16.375 20.2812 16.375H21.2577C22.8813 16.375 24.1875 15.0689 24.1875 13.4452V7.586C24.1875 5.9625 22.8814 4.65625 21.2577 4.65625H20.2812C9.49025 4.65625 0.75 13.3965 0.75 24.1875V53.4844C0.75 56.7192 3.3745 59.3438 6.60938 59.3438H22.2344C25.4692 59.3438 28.0938 56.7192 28.0938 53.4844V37.8594C28.0938 34.6245 25.4692 32 22.2344 32Z" fill="#06162E"/>
<path d="M57.3906 32H47.625V24.1875C47.625 19.8784 51.1284 16.375 55.4375 16.375H56.414C58.0375 16.375 59.3438 15.0689 59.3438 13.4452V7.586C59.3438 5.9625 58.0376 4.65625 56.414 4.65625H55.4375C44.6465 4.65625 35.9062 13.3965 35.9062 24.1875V53.4844C35.9062 56.7192 38.5308 59.3438 41.7656 59.3438H57.3906C60.6255 59.3438 63.25 56.7192 63.25 53.4844V37.8594C63.25 34.6245 60.6255 32 57.3906 32Z" fill="#06162E"/>
</g>
</svg>
