<svg width="40" height="40" viewBox="0 0 40 40" fill="none" xmlns="http://www.w3.org/2000/svg">
<rect width="40" height="40" rx="20" fill="url(#paint0_linear_3623_121)"/>
<path d="M12.9376 25.6655L23.9586 14.6446L16.4732 14.6446C16.3404 14.6469 16.2085 14.6227 16.0852 14.5735C15.9618 14.5243 15.8495 14.451 15.7548 14.3579C15.6601 14.2649 15.5849 14.1539 15.5336 14.0314C15.4822 13.909 15.4558 13.7775 15.4558 13.6447C15.4558 13.5119 15.4822 13.3805 15.5336 13.258C15.5849 13.1356 15.6601 13.0246 15.7548 12.9315C15.8495 12.8384 15.9618 12.7651 16.0852 12.7159C16.2085 12.6667 16.3404 12.6426 16.4732 12.6449L26.3727 12.6449C26.6378 12.6449 26.8921 12.7503 27.0796 12.9378C27.2671 13.1253 27.3725 13.3796 27.3725 13.6447L27.3725 23.5442C27.3679 23.8064 27.2606 24.0563 27.0736 24.2401C26.8866 24.4238 26.6349 24.5268 26.3726 24.5268C26.1104 24.5268 25.8587 24.4238 25.6717 24.2401C25.4847 24.0563 25.3774 23.8064 25.3728 23.5442L25.3728 16.0588L14.3518 27.0797C14.1643 27.2673 13.9099 27.3726 13.6447 27.3726C13.3795 27.3726 13.1252 27.2673 12.9376 27.0797C12.7501 26.8922 12.6447 26.6379 12.6447 26.3726C12.6447 26.1074 12.7501 25.8531 12.9376 25.6655Z" fill="#06162E"/>
<defs>
<linearGradient id="paint0_linear_3623_121" x1="0" y1="20" x2="40" y2="20" gradientUnits="userSpaceOnUse">
<stop offset="0.0302" stop-color="#996B55"/>
<stop offset="0.3451" stop-color="#E5AB8E"/>
<stop offset="0.4755" stop-color="#E5AB8E"/>
<stop offset="0.9298" stop-color="#996B55"/>
</linearGradient>
</defs>
</svg>
